<?xml version="1.0" encoding="UTF-8" standalone="no"?>
<svg
   xmlns:dc="http://purl.org/dc/elements/1.1/"
   xmlns:cc="http://creativecommons.org/ns#"
   xmlns:rdf="http://www.w3.org/1999/02/22-rdf-syntax-ns#"
   xmlns:svg="http://www.w3.org/2000/svg"
   xmlns="http://www.w3.org/2000/svg"
   xmlns:sodipodi="http://sodipodi.sourceforge.net/DTD/sodipodi-0.dtd"
   xmlns:inkscape="http://www.inkscape.org/namespaces/inkscape"
   viewBox="45.734535217285156 3.8720805644989014 112.02945709228516 193.51092529296875"
   preserveAspectRatio="xMidYMid meet"
   style="stroke-width: 0px;"
   version="1.1"
   id="svg6"
   sodipodi:docname="arrow.svg"
   inkscape:version="0.92.1 r15371">
  <metadata
     id="metadata12">
    <rdf:RDF>
      <cc:Work
         rdf:about="">
        <dc:format>image/svg+xml</dc:format>
        <dc:type
           rdf:resource="http://purl.org/dc/dcmitype/StillImage" />
      </cc:Work>
    </rdf:RDF>
  </metadata>
  <defs
     id="defs10" />
  <sodipodi:namedview
     pagecolor="#ffffff"
     bordercolor="#666666"
     borderopacity="1"
     objecttolerance="10"
     gridtolerance="10"
     guidetolerance="10"
     inkscape:pageopacity="0"
     inkscape:pageshadow="2"
     inkscape:window-width="740"
     inkscape:window-height="480"
     id="namedview8"
     showgrid="false"
     inkscape:zoom="1.2195694"
     inkscape:cx="56.014729"
     inkscape:cy="96.755463"
     inkscape:window-x="298"
     inkscape:window-y="392"
     inkscape:window-maximized="0"
     inkscape:current-layer="svg6" />
  <g
     id="g4"
     transform="rotate(180,101.6158,101.06634)">
    <path
       d="M 156.124,46.421 103.09,5.431 A 3.245,3.245 0 0 0 99.087,5.45 L 47.109,46.44 a 3.252,3.252 0 0 0 -0.54,4.568 c 1.112,1.411 3.233,1.655 4.644,0.54 L 98,14.711 V 194.13 c 0,1.798 1.202,3.253 3,3.253 1.798,0 3,-1.455 3,-3.253 V 14.63 l 47.969,36.937 c 0.591,0.457 1.379,0.68 2.077,0.68 0.972,0 1.976,-0.435 2.618,-1.264 1.1,-1.42 0.883,-3.463 -0.54,-4.562 z"
       id="path2"
       inkscape:connector-curvature="0" />
  </g>
</svg>
